<?xml version="1.0" encoding="UTF-8"?>
<!DOCTYPE svg PUBLIC "-//W3C//DTD SVG 1.1//EN" "http://www.w3.org/Graphics/SVG/1.1/DTD/svg11.dtd">
<!-- Creator: CorelDRAW X8 -->
<svg xmlns="http://www.w3.org/2000/svg" xml:space="preserve" width="16.2158mm" height="10.2592mm" version="1.1" style="shape-rendering:geometricPrecision; text-rendering:geometricPrecision; image-rendering:optimizeQuality; fill-rule:evenodd; clip-rule:evenodd"
viewBox="0 0 224 141"
 xmlns:xlink="http://www.w3.org/1999/xlink">
 <defs>
  <style type="text/css">
   <![CDATA[
    .fil1 {fill:#C1A07D;fill-rule:nonzero}
    .fil0 {fill:white;fill-rule:nonzero}
   ]]>
  </style>
 </defs>
 <g id="Слой_x0020_1">
  <metadata id="CorelCorpID_0Corel-Layer"/>
  <g id="_2604504041408">
   <polygon id="path14" class="fil0" points="59,132 63,130 63,107 59,106 59,96 94,96 94,112 86,112 85,107 75,107 75,114 85,114 85,122 75,122 75,130 81,132 81,141 59,141 "/>
   <polygon id="path18" class="fil0" points="100,132 104,130 104,107 100,106 100,96 120,96 120,106 116,107 116,130 120,132 120,141 100,141 "/>
   <polygon id="path22" class="fil0" points="125,96 165,96 165,115 157,115 156,106 151,106 151,130 156,132 156,141 135,141 135,132 139,130 139,106 135,106 134,115 125,115 "/>
   <polygon id="path24" class="fil1" points="0,96 12,96 12,63 0,63 "/>
   <polygon id="path26" class="fil1" points="30,107 18,107 18,50 30,50 "/>
   <polygon id="path28" class="fil1" points="212,96 224,96 224,63 212,63 "/>
   <polygon id="path30" class="fil1" points="206,107 193,107 193,50 206,50 "/>
   <polygon id="path34" class="fil1" points="175,36 175,74 49,74 49,36 37,36 37,120 49,120 49,86 175,86 175,120 187,120 187,36 "/>
   <path id="path46" class="fil0" d="M59 65l87 0c0,0 15,0 18,-16 1,-4 1,-5 1,-7l0 -21c0,0 0,-5 -2,-10 -2,-3 -4,-6 -9,-9 -2,-1 -5,-2 -8,-2l-33 0 0 47 17 0 0 -32 10 0c1,0 3,0 4,0 1,1 3,3 3,5 0,4 0,24 0,24 0,0 -1,6 -6,6 -6,1 -65,0 -65,0l0 -3c0,0 0,-3 3,-3 4,-1 17,-5 21,-6 4,-1 8,-6 9,-11 1,-5 0,-14 0,-14 0,0 0,-6 -5,-10 -1,0 -2,-1 -3,-1 -2,-2 -5,-2 -6,-2l-20 0c-1,0 -2,0 -2,0 -2,1 -5,1 -8,4 -4,3 -5,6 -5,8 0,1 0,10 0,10l16 0 0 -3c0,-1 0,-3 1,-4 0,0 0,0 0,0 1,-1 2,-2 4,-2 2,0 5,0 7,0 2,0 3,1 4,1 1,1 1,2 2,3 0,2 0,4 0,5 0,1 -1,2 -1,2 -1,1 -2,2 -4,3 -5,1 -13,4 -17,5 -5,1 -9,3 -11,8 -1,2 -2,5 -2,6 0,1 0,19 0,19z"/>
  </g>
 </g>
</svg>
